Coordinates
version=1
nRows=27
nColumns=12
inDegrees=yes

Units are S.I. units (second, meters, Newtons, ...)
Angles are in degrees

endheader
time	SC_y	SC_z	SC_x	AC_y	AC_z	AC_x	GH_y	GH_z	GH_yy	EL_x	PS_y
       0.0              -47.61          11.73          56.06          53.75         -8.436          15.46         -56.73          70.54          36.99          126.2          122.0
   0.02214               -47.6          11.73          56.07          53.75         -8.437          15.46         -56.73          70.54          36.98          126.2          122.0
   0.04428               -47.6          11.73          56.07          53.75         -8.438          15.46         -56.73          70.54          36.96          126.2          122.0
   0.06641              -47.59          11.74          56.08          53.75         -8.438          15.46         -56.73          70.54          36.95          126.2          122.0
   0.08855              -47.59          11.74          56.08          53.74         -8.439          15.46         -56.74          70.55          36.93          126.1          122.0
    0.1107              -47.58          11.74          56.09          53.74          -8.44          15.45         -56.74          70.55          36.92          126.1          122.0
    0.1328              -47.58          11.74          56.09          53.74         -8.441          15.45         -56.74          70.55           36.9          126.1          122.0
     0.155              -47.57          11.74           56.1          53.74         -8.442          15.45         -56.74          70.55          36.88          126.1          122.0
    0.1771              -47.57          11.75           56.1          53.73         -8.443          15.45         -56.74          70.55          36.86          126.1          122.0
    0.1992              -47.56          11.75          56.11          53.73         -8.444          15.45         -56.74          70.56          36.84          126.0          122.1
    0.2214              -47.55          11.75          56.12          53.73         -8.445          15.45         -56.74          70.56          36.81          126.0          122.1
    0.2435              -47.55          11.76          56.12          53.72         -8.446          15.45         -56.74          70.56          36.79          126.0          122.1
    0.2657              -47.54          11.76          56.13          53.72         -8.448          15.45         -56.74          70.57          36.76          126.0          122.1
    0.2878              -47.53          11.76          56.14          53.72         -8.449          15.44         -56.74          70.57          36.73          125.9          122.1
    0.3099              -47.52          11.77          56.15          53.71         -8.451          15.44         -56.74          70.57           36.7          125.9          122.1
    0.3321              -47.51          11.77          56.16          53.71         -8.453          15.44         -56.74          70.58          36.67          125.9          122.1
    0.3542               -47.5          11.77          56.17           53.7         -8.454          15.44         -56.74          70.58          36.63          125.8          122.1
    0.3763              -47.49          11.78          56.19           53.7         -8.457          15.44         -56.74          70.59          36.59          125.8          122.1
    0.3985              -47.48          11.78           56.2          53.69         -8.459          15.43         -56.74          70.59          36.54          125.7          122.1
    0.4206              -47.46          11.79          56.22          53.68         -8.461          15.43         -56.74           70.6          36.49          125.7          122.1
    0.4428              -47.45           11.8          56.23          53.68         -8.464          15.43         -56.74           70.6          36.44          125.6          122.1
    0.4649              -47.43           11.8          56.25          53.67         -8.467          15.42         -56.74          70.61          36.38          125.6          122.1
     0.487              -47.41          11.81          56.27          53.66          -8.47          15.42         -56.75          70.62          36.32          125.5          122.1
    0.5092              -47.39          11.82          56.29          53.65         -8.474          15.42         -56.75          70.62          36.24          125.5          122.2
    0.5313              -47.36          11.83          56.32          53.64         -8.478          15.41         -56.75          70.63          36.16          125.4          122.2
    0.5534              -47.34          11.84          56.34          53.63         -8.482          15.41         -56.75          70.64          36.07          125.3          122.2
    0.5756              -47.31          11.85          56.38          53.61         -8.487           15.4         -56.75          70.65          35.97          125.2          122.2
